<svg version="1.1" id="Capa_1" xmlns="http://www.w3.org/2000/svg" xmlns:xlink="http://www.w3.org/1999/xlink" x="0px" y="0px"
	 viewBox="0 0 511.999 511.999" style="enable-background:new 0 0 511.999 511.999;" xml:space="preserve">
<path style="fill:#FFEA84;" d="M406.725,157.866l-21.215-21.215l56.43-56.429c11.476-11.476,11.476-30.149,0-41.625
	c-8.034-8.033-20.134-10.732-30.829-6.875c-20.733,7.478-43.636,11.269-68.072,11.269h-49.637V12.988h49.637
	c20.956,0,40.434-3.192,57.894-9.489c21.58-7.783,46.004-2.334,62.223,13.882c23.173,23.174,23.173,60.881,0,84.055L406.725,157.866
	z"/>
<path style="fill:#888890;" d="M410.261,267.479L275.898,133.114l63.645-63.646l134.364,134.364L410.261,267.479z"/>
<rect x="361.039" y="157.085" transform="matrix(-0.7071 -0.7071 0.7071 -0.7071 554.4775 633.8503)" style="fill:#56535A;" width="94.948" height="90.008"/>
<circle style="fill:#AFAEB4;" cx="226.483" cy="316.98" r="195.019"/>
<path style="fill:#888890;" d="M364.386,179.081L88.588,454.88c35.291,35.291,84.046,57.12,137.899,57.12
	c107.707,0,195.019-87.313,195.019-195.019C421.505,263.127,399.678,214.372,364.386,179.081z"/>
</svg>
